<svg width="100" height="100" viewBox="0 0 100 100" fill="none" xmlns="http://www.w3.org/2000/svg">
<g clip-path="url(#clip0)">
<mask id="mask0" mask-type="alpha" maskUnits="userSpaceOnUse" x="0" y="0" width="100" height="100">
<path d="M100 50C100 39.5528 96.7279 29.3681 90.6423 20.8761C84.5571 12.3841 75.9647 6.01163 66.072 2.6535C56.1792 -0.70464 45.4831 -0.879671 35.4858 2.15298C25.4885 5.18564 16.6922 11.2736 10.3323 19.5619C3.97249 27.8503 0.368589 37.9224 0.0267665 48.3641C-0.315055 58.8056 2.62237 69.092 8.42652 77.7785C14.2306 86.465 22.6099 93.1153 32.3875 96.7955C42.165 100.476 52.8497 101 62.941 98.2964L53.8822 64.4889C50.8549 65.3001 47.6495 65.1426 44.7162 64.0386C41.783 62.9346 39.2692 60.9395 37.5279 58.3335C35.7867 55.7276 34.9055 52.6417 35.008 49.5092C35.1105 46.3768 36.1917 43.355 38.0997 40.8686C40.0076 38.3821 42.6466 36.5557 45.6458 35.6459C48.6449 34.7361 51.8538 34.7886 54.8216 35.796C57.7895 36.8035 60.3671 38.7152 62.1927 41.2628C64.0183 43.8104 65 46.8659 65 50H100Z" fill="white"/>
</mask>
<g mask="url(#mask0)">
<path d="M100 50C100 39.5528 96.7279 29.3681 90.6423 20.8761C84.5571 12.3841 75.9647 6.01163 66.072 2.6535C56.1792 -0.70464 45.4831 -0.879671 35.4858 2.15298C25.4885 5.18564 16.6922 11.2736 10.3323 19.5619C3.97249 27.8503 0.368589 37.9224 0.0267665 48.3641C-0.315055 58.8056 2.62237 69.092 8.42652 77.7785C14.2306 86.465 22.6099 93.1153 32.3875 96.7955C42.165 100.476 52.8497 101 62.941 98.2964L53.8822 64.4889C50.8549 65.3001 47.6495 65.1426 44.7162 64.0386C41.783 62.9346 39.2692 60.9395 37.5279 58.3335C35.7867 55.7276 34.9055 52.6417 35.008 49.5092C35.1105 46.3768 36.1917 43.355 38.0997 40.8686C40.0076 38.3821 42.6466 36.5557 45.6458 35.6459C48.6449 34.7361 51.8538 34.7886 54.8216 35.796C57.7895 36.8035 60.3671 38.7152 62.1927 41.2628C64.0183 43.8104 65 46.8659 65 50H100Z" stroke="#FFA902" stroke-width="6"/>
</g>
</g>
<defs>
<clipPath id="clip0">
<rect width="100" height="100" fill="white"/>
</clipPath>
</defs>
</svg>
