<svg width="73" height="73" viewBox="0 0 73 73" fill="none" xmlns="http://www.w3.org/2000/svg">
<path d="M60.0833 1.75C56.9891 1.75 54.0217 2.97916 51.8338 5.16709C49.6458 7.35501 48.4167 10.3225 48.4167 13.4167V60.0833C48.4167 63.1775 49.6458 66.145 51.8338 68.3329C54.0217 70.5208 56.9891 71.75 60.0833 71.75C63.1775 71.75 66.145 70.5208 68.3329 68.3329C70.5208 66.145 71.75 63.1775 71.75 60.0833C71.75 56.9891 70.5208 54.0217 68.3329 51.8338C66.145 49.6458 63.1775 48.4167 60.0833 48.4167H13.4167C10.3225 48.4167 7.35501 49.6458 5.16709 51.8338C2.97916 54.0217 1.75 56.9891 1.75 60.0833C1.75 63.1775 2.97916 66.145 5.16709 68.3329C7.35501 70.5208 10.3225 71.75 13.4167 71.75C16.5109 71.75 19.4783 70.5208 21.6662 68.3329C23.8542 66.145 25.0833 63.1775 25.0833 60.0833V13.4167C25.0833 10.3225 23.8542 7.35501 21.6662 5.16709C19.4783 2.97916 16.5109 1.75 13.4167 1.75C10.3225 1.75 7.35501 2.97916 5.16709 5.16709C2.97916 7.35501 1.75 10.3225 1.75 13.4167C1.75 16.5109 2.97916 19.4783 5.16709 21.6662C7.35501 23.8542 10.3225 25.0833 13.4167 25.0833H60.0833C63.1775 25.0833 66.145 23.8542 68.3329 21.6662C70.5208 19.4783 71.75 16.5109 71.75 13.4167C71.75 10.3225 70.5208 7.35501 68.3329 5.16709C66.145 2.97916 63.1775 1.75 60.0833 1.75Z" stroke="#FF6347" stroke-width="2" stroke-linecap="round" stroke-linejoin="round"/>
</svg>
