<svg width="71" height="71" viewBox="0 0 71 71" fill="none" xmlns="http://www.w3.org/2000/svg">
<path d="M42.5417 29.4167C40.1208 29.4167 38.1667 27.4625 38.1667 25.0417V10.4583C38.1667 8.0375 40.1208 6.08334 42.5417 6.08334C44.9625 6.08334 46.9167 8.0375 46.9167 10.4583V25.0417C46.9167 27.4625 44.9625 29.4167 42.5417 29.4167Z" stroke="#FF6347" stroke-width="2" stroke-linecap="round" stroke-linejoin="round"/>
<path d="M60.0417 29.4167H55.6667V25.0417C55.6667 22.6208 57.6208 20.6667 60.0417 20.6667C62.4625 20.6667 64.4167 22.6208 64.4167 25.0417C64.4167 27.4625 62.4625 29.4167 60.0417 29.4167Z" stroke="#FF6347" stroke-width="2" stroke-linecap="round" stroke-linejoin="round"/>
<path d="M27.9583 41.0833C30.3792 41.0833 32.3333 43.0375 32.3333 45.4583V60.0417C32.3333 62.4625 30.3792 64.4167 27.9583 64.4167C25.5375 64.4167 23.5833 62.4625 23.5833 60.0417V45.4583C23.5833 43.0375 25.5375 41.0833 27.9583 41.0833Z" stroke="#FF6347" stroke-width="2" stroke-linecap="round" stroke-linejoin="round"/>
<path d="M10.4583 41.0833H14.8333V45.4583C14.8333 47.8792 12.8792 49.8333 10.4583 49.8333C8.0375 49.8333 6.08333 47.8792 6.08333 45.4583C6.08333 43.0375 8.0375 41.0833 10.4583 41.0833Z" stroke="#FF6347" stroke-width="2" stroke-linecap="round" stroke-linejoin="round"/>
<path d="M41.0833 42.5417C41.0833 40.1208 43.0375 38.1667 45.4583 38.1667H60.0417C62.4625 38.1667 64.4167 40.1208 64.4167 42.5417C64.4167 44.9625 62.4625 46.9167 60.0417 46.9167H45.4583C43.0375 46.9167 41.0833 44.9625 41.0833 42.5417Z" stroke="#FF6347" stroke-width="2" stroke-linecap="round" stroke-linejoin="round"/>
<path d="M45.4583 55.6667H41.0833V60.0417C41.0833 62.4625 43.0375 64.4167 45.4583 64.4167C47.8792 64.4167 49.8333 62.4625 49.8333 60.0417C49.8333 57.6208 47.8792 55.6667 45.4583 55.6667Z" stroke="#FF6347" stroke-width="2" stroke-linecap="round" stroke-linejoin="round"/>
<path d="M29.4167 27.9583C29.4167 25.5375 27.4625 23.5833 25.0417 23.5833H10.4583C8.0375 23.5833 6.08333 25.5375 6.08333 27.9583C6.08333 30.3792 8.0375 32.3333 10.4583 32.3333H25.0417C27.4625 32.3333 29.4167 30.3792 29.4167 27.9583Z" stroke="#FF6347" stroke-width="2" stroke-linecap="round" stroke-linejoin="round"/>
<path d="M25.0417 14.8333H29.4167V10.4583C29.4167 8.0375 27.4625 6.08334 25.0417 6.08334C22.6208 6.08334 20.6667 8.0375 20.6667 10.4583C20.6667 12.8792 22.6208 14.8333 25.0417 14.8333Z" stroke="#FF6347" stroke-width="2" stroke-linecap="round" stroke-linejoin="round"/>
</svg>
