<svg width="819" height="301" viewBox="0 0 819 301" fill="none" xmlns="http://www.w3.org/2000/svg">
<g clip-path="url(#clip0)">
<path opacity="0.1" d="M277.58 261.71C274.855 263.116 271.999 264.33 269.182 265.541C258.775 269.939 248.21 274.375 237.03 275.884C216.046 278.715 194.374 271.05 173.746 275.819C156.464 279.811 142.172 292.043 125.288 297.491C117.437 300.023 109.269 301.015 101.028 301.015H99.9486C98.9279 301.003 97.9148 300.977 96.9094 300.939C88.5536 300.625 80.1633 299.387 71.972 297.805C46.1083 292.825 19.7853 283.696 0.0114746 266.889C57.5876 256.347 176.188 240.184 277.58 261.71Z" fill="#252223"/>
<path d="M201.088 262.89C201.088 262.89 191.645 230.802 202.86 207.196C207.568 197.285 209.13 186.156 206.955 175.399C205.916 170.292 204.41 165.291 202.458 160.459" stroke="#535461" stroke-width="2" stroke-miterlimit="10"/>
<path d="M209.42 145.541C209.42 149.475 202.305 160.865 202.305 160.865C202.305 160.865 195.189 149.46 195.189 145.541C195.167 144.592 195.335 143.648 195.682 142.765C196.03 141.882 196.551 141.078 197.213 140.399C197.876 139.72 198.668 139.18 199.542 138.812C200.416 138.444 201.355 138.254 202.303 138.254C203.251 138.254 204.19 138.444 205.064 138.812C205.938 139.18 206.73 139.72 207.392 140.399C208.055 141.078 208.576 141.882 208.923 142.765C209.271 143.648 209.439 144.592 209.417 145.541H209.42Z" fill="#F26C4F"/>
<path d="M221.194 167.324C219.059 170.626 206.894 176.326 206.894 176.326C206.894 176.326 207.116 162.883 209.252 159.581C210.3 158.048 211.905 156.984 213.725 156.618C215.544 156.253 217.435 156.613 218.993 157.623C220.551 158.632 221.654 160.211 222.065 162.023C222.476 163.835 222.164 165.735 221.194 167.32V167.324Z" fill="#F26C4F"/>
<path d="M220.678 204.549C217.168 206.319 203.794 205.097 203.794 205.097C203.794 205.097 210.764 193.604 214.274 191.834C215.11 191.391 216.027 191.119 216.969 191.034C217.912 190.95 218.862 191.054 219.764 191.341C220.665 191.629 221.501 192.093 222.221 192.708C222.941 193.322 223.532 194.075 223.958 194.92C224.384 195.766 224.637 196.688 224.703 197.633C224.769 198.578 224.645 199.527 224.34 200.423C224.035 201.32 223.554 202.146 222.926 202.855C222.298 203.563 221.535 204.139 220.682 204.549H220.678Z" fill="#F26C4F"/>
<path d="M213.952 232.626C210.795 234.962 197.402 236.02 197.402 236.02C197.402 236.02 202.332 223.516 205.489 221.175C206.24 220.61 207.095 220.199 208.005 219.966C208.915 219.734 209.862 219.684 210.791 219.819C211.721 219.954 212.614 220.273 213.42 220.755C214.226 221.238 214.929 221.875 215.487 222.631C216.046 223.387 216.449 224.246 216.675 225.158C216.9 226.071 216.942 227.019 216.8 227.948C216.657 228.877 216.332 229.769 215.843 230.572C215.355 231.375 214.712 232.073 213.952 232.626V232.626Z" fill="#F26C4F"/>
<path d="M191.955 177.089C194.772 179.828 207.889 182.678 207.889 182.678C207.889 182.678 204.674 169.626 201.857 166.883C200.494 165.62 198.691 164.94 196.834 164.989C194.977 165.038 193.213 165.812 191.918 167.146C190.624 168.479 189.902 170.267 189.906 172.126C189.911 173.985 190.642 175.769 191.943 177.096L191.955 177.089Z" fill="#F26C4F"/>
<path d="M184.506 210.023C188.016 211.793 201.39 210.571 201.39 210.571C201.39 210.571 194.42 199.078 190.91 197.308C190.073 196.865 189.157 196.593 188.215 196.508C187.272 196.424 186.322 196.528 185.42 196.816C184.519 197.103 183.683 197.568 182.963 198.182C182.243 198.797 181.652 199.549 181.226 200.395C180.8 201.24 180.547 202.163 180.481 203.107C180.415 204.052 180.539 205.001 180.844 205.897C181.149 206.794 181.629 207.621 182.258 208.329C182.886 209.038 183.649 209.613 184.502 210.023H184.506Z" fill="#F26C4F"/>
<path d="M181.654 243.03C184.812 245.367 198.205 246.425 198.205 246.425C198.205 246.425 193.275 233.92 190.117 231.58C189.367 231.015 188.512 230.604 187.602 230.371C186.692 230.138 185.745 230.088 184.815 230.224C183.886 230.359 182.993 230.677 182.187 231.16C181.381 231.643 180.678 232.28 180.12 233.036C179.561 233.792 179.157 234.651 178.932 235.563C178.707 236.476 178.664 237.424 178.807 238.353C178.95 239.282 179.275 240.174 179.764 240.977C180.252 241.779 180.895 242.477 181.654 243.03V243.03Z" fill="#F26C4F"/>
<path opacity="0.25" d="M209.42 145.541C209.42 149.475 202.305 160.865 202.305 160.865C202.305 160.865 195.189 149.46 195.189 145.541C195.167 144.592 195.335 143.648 195.682 142.765C196.03 141.882 196.551 141.078 197.213 140.399C197.876 139.72 198.668 139.18 199.542 138.812C200.416 138.444 201.355 138.254 202.303 138.254C203.251 138.254 204.19 138.444 205.064 138.812C205.938 139.18 206.73 139.72 207.392 140.399C208.055 141.078 208.576 141.882 208.923 142.765C209.271 143.648 209.439 144.592 209.417 145.541H209.42Z" fill="black"/>
<path opacity="0.25" d="M221.194 167.324C219.059 170.626 206.894 176.326 206.894 176.326C206.894 176.326 207.116 162.883 209.252 159.581C210.3 158.048 211.905 156.984 213.725 156.618C215.544 156.253 217.435 156.613 218.993 157.623C220.551 158.632 221.654 160.211 222.065 162.023C222.476 163.835 222.164 165.735 221.194 167.32V167.324Z" fill="black"/>
<path opacity="0.25" d="M220.678 204.549C217.168 206.319 203.794 205.097 203.794 205.097C203.794 205.097 210.764 193.604 214.274 191.834C215.11 191.391 216.027 191.119 216.969 191.034C217.912 190.95 218.862 191.054 219.764 191.341C220.665 191.629 221.501 192.093 222.221 192.708C222.941 193.322 223.532 194.075 223.958 194.92C224.384 195.766 224.637 196.688 224.703 197.633C224.769 198.578 224.645 199.527 224.34 200.423C224.035 201.32 223.554 202.146 222.926 202.855C222.298 203.563 221.535 204.139 220.682 204.549H220.678Z" fill="black"/>
<path opacity="0.25" d="M213.952 232.626C210.795 234.962 197.402 236.02 197.402 236.02C197.402 236.02 202.332 223.516 205.489 221.175C206.24 220.61 207.095 220.199 208.005 219.966C208.915 219.734 209.862 219.684 210.791 219.819C211.721 219.954 212.614 220.273 213.42 220.755C214.226 221.238 214.929 221.875 215.487 222.631C216.046 223.387 216.449 224.246 216.675 225.158C216.9 226.071 216.942 227.019 216.8 227.948C216.657 228.877 216.332 229.769 215.843 230.572C215.355 231.375 214.712 232.073 213.952 232.626V232.626Z" fill="black"/>
<path opacity="0.25" d="M191.955 177.089C194.772 179.828 207.889 182.678 207.889 182.678C207.889 182.678 204.674 169.626 201.857 166.883C200.494 165.62 198.691 164.94 196.834 164.989C194.977 165.038 193.213 165.812 191.918 167.146C190.624 168.479 189.902 170.267 189.906 172.126C189.911 173.985 190.642 175.769 191.943 177.096L191.955 177.089Z" fill="black"/>
<path opacity="0.25" d="M184.506 210.023C188.016 211.793 201.39 210.571 201.39 210.571C201.39 210.571 194.42 199.078 190.91 197.308C190.073 196.865 189.157 196.593 188.215 196.508C187.272 196.424 186.322 196.528 185.42 196.816C184.519 197.103 183.683 197.568 182.963 198.182C182.243 198.797 181.652 199.549 181.226 200.395C180.8 201.24 180.547 202.163 180.481 203.107C180.415 204.052 180.539 205.001 180.844 205.897C181.149 206.794 181.629 207.621 182.258 208.329C182.886 209.038 183.649 209.613 184.502 210.023H184.506Z" fill="black"/>
<path opacity="0.25" d="M181.654 243.03C184.812 245.367 198.205 246.425 198.205 246.425C198.205 246.425 193.275 233.92 190.117 231.58C189.367 231.015 188.512 230.604 187.602 230.371C186.692 230.138 185.745 230.088 184.815 230.224C183.886 230.359 182.993 230.677 182.187 231.16C181.381 231.643 180.678 232.28 180.12 233.036C179.561 233.792 179.157 234.651 178.932 235.563C178.707 236.476 178.664 237.424 178.807 238.353C178.95 239.282 179.275 240.174 179.764 240.977C180.252 241.779 180.895 242.477 181.654 243.03V243.03Z" fill="black"/>
<path d="M36.8989 274.141C36.8989 274.141 27.456 242.057 38.6711 218.436C43.3792 208.525 44.9409 197.396 42.7668 186.639C41.7271 181.532 40.2217 176.531 38.2692 171.698" stroke="#535461" stroke-width="2" stroke-miterlimit="10"/>
<path d="M45.2471 156.792C45.2471 160.727 38.1314 172.116 38.1314 172.116C38.1314 172.116 31.0158 160.711 31.0158 156.792C30.9938 155.843 31.1615 154.9 31.5091 154.017C31.8568 153.134 32.3772 152.329 33.04 151.65C33.7027 150.971 34.4944 150.432 35.3684 150.063C36.2424 149.695 37.1812 149.505 38.1295 149.505C39.0779 149.505 40.0166 149.695 40.8906 150.063C41.7647 150.432 42.5563 150.971 43.2191 151.65C43.8818 152.329 44.4023 153.134 44.7499 154.017C45.0975 154.9 45.2653 155.843 45.2433 156.792H45.2471Z" fill="#F26C4F"/>
<path d="M57.0058 178.575C54.8699 181.877 42.7055 187.578 42.7055 187.578C42.7055 187.578 42.9275 174.135 45.0634 170.833C45.5592 170.022 46.2121 169.319 46.9836 168.765C47.755 168.211 48.6295 167.817 49.5554 167.607C50.4812 167.396 51.4399 167.373 52.3748 167.539C53.3096 167.706 54.2019 168.057 54.9989 168.574C55.7959 169.09 56.4816 169.761 57.0156 170.547C57.5496 171.332 57.921 172.217 58.108 173.149C58.295 174.081 58.2938 175.04 58.1045 175.972C57.9152 176.903 57.5416 177.787 57.0058 178.571V178.575Z" fill="#F26C4F"/>
<path d="M56.4929 215.8C52.9829 217.57 39.6089 216.348 39.6089 216.348C39.6089 216.348 46.5791 204.855 50.0891 203.085C51.7686 202.279 53.697 202.164 55.4602 202.765C57.2234 203.366 58.6808 204.635 59.5196 206.299C60.3584 207.964 60.5117 209.891 59.9465 211.668C59.3813 213.444 58.1427 214.928 56.4967 215.8H56.4929Z" fill="#F26C4F"/>
<path d="M49.7676 243.877C46.6098 246.214 33.2167 247.271 33.2167 247.271C33.2167 247.271 38.1467 234.767 41.3046 232.426C42.8228 231.321 44.7158 230.861 46.5714 231.146C48.427 231.432 50.0946 232.44 51.2111 233.95C52.3275 235.461 52.8023 237.352 52.5319 239.211C52.2615 241.071 51.2679 242.748 49.7676 243.877V243.877Z" fill="#F26C4F"/>
<path d="M27.7661 188.34C30.5832 191.079 43.716 193.918 43.716 193.918C43.716 193.918 40.5008 180.866 37.6836 178.123C36.3206 176.859 34.5179 176.18 32.6607 176.229C30.8036 176.278 29.0393 177.052 27.7447 178.385C26.4502 179.719 25.7281 181.507 25.7328 183.366C25.7375 185.225 26.4686 187.009 27.7699 188.336L27.7661 188.34Z" fill="#F26C4F"/>
<path d="M20.3327 221.274C23.8427 223.044 37.2166 221.822 37.2166 221.822C37.2166 221.822 30.2464 210.33 26.7364 208.56C25.0584 207.766 23.1369 207.659 21.3817 208.263C19.6265 208.867 18.1765 210.134 17.3411 211.792C16.5057 213.451 16.3509 215.371 16.9098 217.143C17.4686 218.914 18.6969 220.397 20.3327 221.274V221.274Z" fill="#F26C4F"/>
<path d="M17.4658 254.282C20.6236 256.619 34.0167 257.676 34.0167 257.676C34.0167 257.676 29.0866 245.172 25.9288 242.823C24.4106 241.718 22.5175 241.258 20.662 241.544C18.8064 241.829 17.1387 242.837 16.0223 244.347C14.9058 245.858 14.4311 247.749 14.7015 249.608C14.9718 251.468 15.9654 253.145 17.4658 254.274V254.282Z" fill="#F26C4F"/>
<path opacity="0.25" d="M45.2471 156.792C45.2471 160.727 38.1314 172.116 38.1314 172.116C38.1314 172.116 31.0158 160.711 31.0158 156.792C30.9938 155.843 31.1615 154.9 31.5091 154.017C31.8568 153.134 32.3772 152.329 33.04 151.65C33.7027 150.971 34.4944 150.432 35.3684 150.063C36.2424 149.695 37.1812 149.505 38.1295 149.505C39.0779 149.505 40.0166 149.695 40.8906 150.063C41.7647 150.432 42.5563 150.971 43.2191 151.65C43.8818 152.329 44.4023 153.134 44.7499 154.017C45.0975 154.9 45.2653 155.843 45.2433 156.792H45.2471Z" fill="black"/>
<path opacity="0.25" d="M57.0058 178.575C54.8699 181.877 42.7055 187.578 42.7055 187.578C42.7055 187.578 42.9275 174.135 45.0634 170.833C45.5592 170.022 46.2121 169.319 46.9836 168.765C47.755 168.211 48.6295 167.817 49.5554 167.607C50.4812 167.396 51.4399 167.373 52.3748 167.539C53.3096 167.706 54.2019 168.057 54.9989 168.574C55.7959 169.09 56.4816 169.761 57.0156 170.547C57.5496 171.332 57.921 172.217 58.108 173.149C58.295 174.081 58.2938 175.04 58.1045 175.972C57.9152 176.903 57.5416 177.787 57.0058 178.571V178.575Z" fill="black"/>
<path opacity="0.25" d="M56.4929 215.8C52.9829 217.57 39.6089 216.348 39.6089 216.348C39.6089 216.348 46.5791 204.855 50.0891 203.085C51.7686 202.279 53.697 202.164 55.4602 202.765C57.2234 203.366 58.6808 204.635 59.5196 206.299C60.3584 207.964 60.5117 209.891 59.9465 211.668C59.3813 213.444 58.1427 214.928 56.4967 215.8H56.4929Z" fill="black"/>
<path opacity="0.25" d="M49.7676 243.877C46.6098 246.214 33.2167 247.271 33.2167 247.271C33.2167 247.271 38.1467 234.767 41.3046 232.426C42.8228 231.321 44.7158 230.861 46.5714 231.146C48.427 231.432 50.0946 232.44 51.2111 233.95C52.3275 235.461 52.8023 237.352 52.5319 239.211C52.2615 241.071 51.2679 242.748 49.7676 243.877V243.877Z" fill="black"/>
<path opacity="0.25" d="M27.7661 188.34C30.5832 191.079 43.716 193.918 43.716 193.918C43.716 193.918 40.5008 180.866 37.6836 178.123C36.3206 176.859 34.5179 176.18 32.6607 176.229C30.8036 176.278 29.0393 177.052 27.7447 178.385C26.4502 179.719 25.7281 181.507 25.7328 183.366C25.7375 185.225 26.4686 187.009 27.7699 188.336L27.7661 188.34Z" fill="black"/>
<path opacity="0.25" d="M20.3327 221.274C23.8427 223.044 37.2166 221.822 37.2166 221.822C37.2166 221.822 30.2464 210.33 26.7364 208.56C25.0584 207.766 23.1369 207.659 21.3817 208.263C19.6265 208.867 18.1765 210.134 17.3411 211.792C16.5057 213.451 16.3509 215.371 16.9098 217.143C17.4686 218.914 18.6969 220.397 20.3327 221.274V221.274Z" fill="black"/>
<path opacity="0.25" d="M17.4658 254.282C20.6236 256.619 34.0167 257.676 34.0167 257.676C34.0167 257.676 29.0866 245.172 25.9288 242.823C24.4106 241.718 22.5175 241.258 20.662 241.544C18.8064 241.829 17.1387 242.837 16.0223 244.347C14.9058 245.858 14.4311 247.749 14.7015 249.608C14.9718 251.468 15.9654 253.145 17.4658 254.274V254.282Z" fill="black"/>
<path d="M152.365 253.113C152.365 253.113 147.251 235.74 153.322 222.956C155.902 217.61 156.68 211.57 155.538 205.744C154.975 202.982 154.16 200.278 153.104 197.664" stroke="#535461" stroke-width="2" stroke-miterlimit="10"/>
<path d="M156.882 189.574C156.882 191.704 153.031 197.875 153.031 197.875C153.031 197.875 149.18 191.711 149.18 189.574C149.18 189.067 149.28 188.566 149.474 188.098C149.667 187.63 149.951 187.205 150.309 186.847C150.666 186.489 151.091 186.205 151.559 186.011C152.026 185.817 152.527 185.718 153.033 185.718C153.539 185.718 154.04 185.817 154.507 186.011C154.975 186.205 155.399 186.489 155.757 186.847C156.115 187.205 156.399 187.63 156.592 188.098C156.786 188.566 156.885 189.067 156.885 189.574H156.882Z" fill="#F26C4F"/>
<path d="M163.251 201.377C162.103 203.162 155.507 206.25 155.507 206.25C155.507 206.25 155.626 198.971 156.782 197.186C157.337 196.328 158.211 195.725 159.209 195.512C160.208 195.298 161.251 195.49 162.108 196.046C162.966 196.602 163.567 197.476 163.781 198.475C163.994 199.475 163.802 200.519 163.247 201.377H163.251Z" fill="#F26C4F"/>
<path d="M162.971 221.527C161.058 222.485 153.831 221.822 153.831 221.822C153.831 221.822 157.605 215.601 159.504 214.643C160.417 214.183 161.476 214.105 162.447 214.426C163.419 214.747 164.223 215.441 164.682 216.356C165.142 217.27 165.22 218.33 164.9 219.302C164.579 220.274 163.885 221.079 162.971 221.539V221.527Z" fill="#F26C4F"/>
<path d="M159.331 236.728C157.62 237.993 150.371 238.567 150.371 238.567C150.371 238.567 153.05 231.798 154.75 230.522C155.571 229.913 156.6 229.655 157.612 229.805C158.623 229.955 159.534 230.501 160.143 231.323C160.752 232.145 161.01 233.175 160.86 234.188C160.71 235.2 160.164 236.111 159.343 236.721L159.331 236.728Z" fill="#F26C4F"/>
<path d="M147.412 206.663C148.943 208.146 156.047 209.682 156.047 209.682C156.047 209.682 154.302 202.599 152.771 201.131C152.032 200.453 151.057 200.089 150.055 200.118C149.052 200.147 148.1 200.567 147.402 201.288C146.704 202.009 146.314 202.974 146.316 203.978C146.318 204.982 146.711 205.945 147.412 206.663V206.663Z" fill="#F26C4F"/>
<path d="M143.389 224.493C145.303 225.45 152.53 224.787 152.53 224.787C152.53 224.787 148.755 218.566 146.857 217.608C145.943 217.148 144.884 217.07 143.913 217.391C142.942 217.712 142.138 218.406 141.678 219.321C141.218 220.235 141.14 221.295 141.461 222.267C141.782 223.239 142.475 224.044 143.389 224.504V224.493Z" fill="#F26C4F"/>
<path d="M141.843 242.364C143.554 243.628 150.803 244.203 150.803 244.203C150.803 244.203 148.124 237.433 146.424 236.158C146.018 235.856 145.556 235.637 145.065 235.514C144.573 235.391 144.063 235.366 143.562 235.44C142.551 235.59 141.64 236.136 141.031 236.958C140.422 237.78 140.164 238.811 140.314 239.823C140.464 240.835 141.01 241.747 141.831 242.356L141.843 242.364Z" fill="#F26C4F"/>
<path opacity="0.5" d="M156.882 189.574C156.882 191.704 153.031 197.875 153.031 197.875C153.031 197.875 149.18 191.711 149.18 189.574C149.18 189.067 149.28 188.566 149.474 188.098C149.667 187.63 149.951 187.205 150.309 186.847C150.666 186.489 151.091 186.205 151.559 186.011C152.026 185.817 152.527 185.718 153.033 185.718C153.539 185.718 154.04 185.817 154.507 186.011C154.975 186.205 155.399 186.489 155.757 186.847C156.115 187.205 156.399 187.63 156.592 188.098C156.786 188.566 156.885 189.067 156.885 189.574H156.882Z" fill="white"/>
<path opacity="0.5" d="M163.251 201.377C162.103 203.162 155.507 206.25 155.507 206.25C155.507 206.25 155.626 198.971 156.782 197.186C157.337 196.328 158.211 195.725 159.209 195.512C160.208 195.298 161.251 195.49 162.108 196.046C162.966 196.602 163.567 197.476 163.781 198.475C163.994 199.475 163.802 200.519 163.247 201.377H163.251Z" fill="white"/>
<path opacity="0.5" d="M162.971 221.527C161.058 222.485 153.831 221.822 153.831 221.822C153.831 221.822 157.605 215.601 159.504 214.643C160.417 214.183 161.476 214.105 162.447 214.426C163.419 214.747 164.223 215.441 164.682 216.356C165.142 217.27 165.22 218.33 164.9 219.302C164.579 220.274 163.885 221.079 162.971 221.539V221.527Z" fill="white"/>
<path opacity="0.5" d="M159.331 236.728C157.62 237.993 150.371 238.567 150.371 238.567C150.371 238.567 153.05 231.798 154.75 230.522C155.571 229.913 156.6 229.655 157.612 229.805C158.623 229.955 159.534 230.501 160.143 231.323C160.752 232.145 161.01 233.175 160.86 234.188C160.71 235.2 160.164 236.111 159.343 236.721L159.331 236.728Z" fill="white"/>
<path opacity="0.5" d="M147.412 206.663C148.943 208.146 156.047 209.682 156.047 209.682C156.047 209.682 154.302 202.599 152.771 201.131C152.032 200.453 151.057 200.089 150.055 200.118C149.052 200.147 148.1 200.567 147.402 201.288C146.704 202.009 146.314 202.974 146.316 203.978C146.318 204.982 146.711 205.945 147.412 206.663V206.663Z" fill="white"/>
<path opacity="0.5" d="M143.389 224.493C145.303 225.45 152.53 224.787 152.53 224.787C152.53 224.787 148.755 218.566 146.857 217.608C145.943 217.148 144.884 217.07 143.913 217.391C142.942 217.712 142.138 218.406 141.678 219.321C141.218 220.235 141.14 221.295 141.461 222.267C141.782 223.239 142.475 224.044 143.389 224.504V224.493Z" fill="white"/>
<path opacity="0.5" d="M141.843 242.364C143.554 243.628 150.803 244.203 150.803 244.203C150.803 244.203 148.124 237.433 146.424 236.158C146.018 235.856 145.556 235.637 145.065 235.514C144.573 235.391 144.063 235.366 143.562 235.44C142.551 235.59 141.64 236.136 141.031 236.958C140.422 237.78 140.164 238.811 140.314 239.823C140.464 240.835 141.01 241.747 141.831 242.356L141.843 242.364Z" fill="white"/>
<path d="M117.131 38.9797V81.9589L137.004 56.3836" stroke="#535461" stroke-width="2" stroke-miterlimit="10"/>
<path d="M96.9017 52.4761L117.131 81.9589" stroke="#535461" stroke-width="2" stroke-miterlimit="10"/>
<g opacity="0.7">
<path opacity="0.7" d="M153.686 33.9267C153.684 31.4022 153.085 28.9138 151.939 26.6649C150.793 24.416 149.132 22.4704 147.091 20.9869C145.05 19.5034 142.687 18.5242 140.196 18.1292C137.704 17.7342 135.155 17.9346 132.756 18.7141C132.887 17.8147 132.955 16.907 132.959 15.998C132.956 11.8565 131.348 7.87758 128.474 4.89796C125.6 1.91835 121.684 0.170284 117.549 0.0214257C113.413 -0.127433 109.382 1.33451 106.301 4.09979C103.221 6.86506 101.332 10.7182 101.032 14.8487C98.632 14.067 96.0813 13.8648 93.5885 14.2588C91.0956 14.6527 88.7312 15.6316 86.6888 17.1153C84.6463 18.5991 82.9837 20.5455 81.8369 22.7956C80.6901 25.0456 80.0917 27.5354 80.0905 30.0613C80.0905 38.1063 85.9967 49.5033 93.698 51.5145L94.896 52.2003L94.2453 54.4299H98.096L97.2692 52.2041L98.4596 51.5222C104.408 49.9592 109.288 42.7877 111.198 35.9073C112.244 36.6048 113.396 37.1287 114.609 37.4588L115.807 38.1446L115.156 40.3742H119.007L118.168 38.1408L119.359 37.4588C120.245 37.2213 121.099 36.8752 121.9 36.4283C122.93 44.1476 128.407 53.5679 135.332 55.3876L136.53 56.0733L135.879 58.3029H139.73L138.891 56.0695L140.082 55.3876C147.795 53.3687 153.686 41.9525 153.686 33.9267Z" fill="url(#paint0_linear)"/>
</g>
<path d="M98.7046 53.6215H94.9803L95.631 51.3843H97.8663L98.7046 53.6215Z" fill="#F26C4F"/>
<path d="M112.197 30.0307C112.197 38.5813 105.273 51.1008 96.7295 51.1008C88.1861 51.1008 81.2618 38.5736 81.2618 30.0307C81.3257 25.9676 82.9832 22.0925 85.8766 19.2419C88.7701 16.3912 92.6674 14.7934 96.7276 14.7934C100.788 14.7934 104.685 16.3912 107.579 19.2419C110.472 22.0925 112.13 25.9676 112.193 30.0307H112.197Z" fill="#F26C4F"/>
<path opacity="0.2" d="M112.197 30.0307C112.197 38.5813 105.273 51.1008 96.7295 51.1008C88.1861 51.1008 81.2618 38.5736 81.2618 30.0307C81.3257 25.9676 82.9832 22.0925 85.8766 19.2419C88.7701 16.3912 92.6674 14.7934 96.7276 14.7934C100.788 14.7934 104.685 16.3912 107.579 19.2419C110.472 22.0925 112.13 25.9676 112.193 30.0307H112.197Z" fill="white"/>
<path d="M97.8663 51.48H95.631L94.3257 50.733H99.1716L97.8663 51.48Z" fill="#535461"/>
<path opacity="0.1" d="M91.1449 17.9977C91.1449 17.9977 84.6378 21.5413 83.6924 28.6285Z" fill="white"/>
<path d="M118.93 40.0141H115.206L115.856 37.7768H118.092L118.93 40.0141Z" fill="#F26C4F"/>
<path opacity="0.07" d="M118.93 40.0141H115.206L115.856 37.7768H118.092L118.93 40.0141Z" fill="black"/>
<path d="M132.442 16.4155C132.442 24.9662 125.518 37.4856 116.974 37.4856C108.431 37.4856 101.506 24.9585 101.506 16.4155C101.57 12.3524 103.228 8.4774 106.121 5.62671C109.015 2.77601 112.912 1.17825 116.972 1.17825C121.032 1.17825 124.93 2.77601 127.823 5.62671C130.717 8.4774 132.374 12.3524 132.438 16.4155H132.442Z" fill="#F26C4F"/>
<path d="M118.092 37.8687H115.856L114.551 37.1255H119.397L118.092 37.8687Z" fill="#535461"/>
<path opacity="0.1" d="M111.382 4.39026C111.382 4.39026 104.875 7.93387 103.929 15.0211Z" fill="white"/>
<path d="M138.987 57.3643H135.259L135.914 55.1271H138.149L138.987 57.3643Z" fill="#F26C4F"/>
<path d="M152.495 33.7697C152.495 42.3203 145.571 54.8398 137.027 54.8398C128.484 54.8398 121.56 42.3126 121.56 33.7697C121.624 29.7066 123.281 25.8315 126.175 22.9808C129.068 20.1301 132.965 18.5324 137.025 18.5324C141.086 18.5324 144.983 20.1301 147.876 22.9808C150.77 25.8315 152.427 29.7066 152.491 33.7697H152.495Z" fill="#F26C4F"/>
<path opacity="0.2" d="M152.495 33.7697C152.495 42.3203 145.571 54.8398 137.027 54.8398C128.484 54.8398 121.56 42.3126 121.56 33.7697C121.624 29.7066 123.281 25.8315 126.175 22.9808C129.068 20.1301 132.965 18.5324 137.025 18.5324C141.086 18.5324 144.983 20.1301 147.876 22.9808C150.77 25.8315 152.427 29.7066 152.491 33.7697H152.495Z" fill="white"/>
<path d="M138.149 55.2229H135.914L134.608 54.4758H139.454L138.149 55.2229Z" fill="#535461"/>
<path opacity="0.1" d="M131.439 21.7405C131.439 21.7405 124.932 25.2841 123.986 32.3714Z" fill="white"/>
<path opacity="0.2" d="M142.681 36.6582L137.36 39.9106L132.036 36.6582L137.36 27.5252L142.681 36.6582ZM137.36 40.9565L132.036 37.704L137.36 45.4655L142.685 37.704L137.36 40.9565Z" fill="black"/>
<path opacity="0.2" d="M122.448 18.1892L117.127 21.4417L111.814 18.1892L117.139 9.04865L122.448 18.1892ZM117.127 22.4875L111.814 19.2313L117.139 26.9927L122.463 19.2313L117.139 22.4837L117.127 22.4875Z" fill="black"/>
<path opacity="0.2" d="M101.51 33.1069L96.1898 36.3594L90.8655 33.1069L96.1898 23.9663L101.51 33.1069ZM96.1898 37.4052L90.8655 34.1527L96.1898 41.9142L101.514 34.1527L96.1898 37.4052Z" fill="black"/>
<path d="M136.277 283.47C133.598 282.857 131.397 279.639 131.397 279.639L131.179 279.673L133.82 244.578C133.82 244.578 136.622 239.479 133.82 232.082C133.261 230.61 132.737 229.067 132.247 227.538L132.671 227.362L132.587 226.887L132.671 226.852C132.671 226.852 124.522 182.153 124.446 167.603C124.446 165.845 124.603 164.588 124.917 163.987C126.203 161.531 128.507 157.999 128.411 153.59C128.495 149.284 126.34 144.108 118.612 138.266C119.229 133.362 120.748 123.038 123.389 116.047C123.389 116.047 124.407 111.449 123.389 104.554L121.858 85.1731C121.858 85.1731 122.115 76.247 116.499 76.247C110.884 76.247 116.756 86.2074 116.756 86.2074L116.247 111.453C116.247 111.453 116.078 112.76 115.791 114.813C114.44 113.282 112.651 112.205 110.666 111.729C110.745 110.806 110.614 109.878 110.283 109.013C110.169 109.086 110.05 109.151 109.931 109.216C109.885 109.063 109.832 108.91 109.774 108.76C108.579 109.501 107.203 109.899 105.797 109.909C104.511 109.909 103.248 109.599 101.97 109.503C99.8003 109.351 97.6336 109.834 95.7343 110.894C95.4702 110.867 95.2022 110.833 94.9343 110.794C89.92 110.028 86.433 116.426 81.4111 119.042C77.8896 120.877 76.4657 125.172 75.9145 129.102C75.3633 133.033 75.2983 137.22 73.2351 140.63C71.8342 142.959 68.6993 144.303 68.1099 146.954C66.9616 152.126 68.2362 150.851 69.5108 157.735C69.9319 160.01 70.4792 160.918 71.0151 163.171C71.5969 165.6 70.9538 168.151 70.8658 170.633C70.6438 177.173 74.8466 183.486 80.6838 186.298C82.154 187.077 83.7398 187.614 85.3804 187.888C85.1172 190.812 83.8999 193.567 81.9164 195.73C82.1116 195.795 82.2991 195.849 82.5058 195.895L82.4254 195.983C85.7938 197.086 89.5143 195.81 92.4846 193.872C93.3506 193.304 94.1779 192.68 94.9611 192.002C94.5013 193.085 94.1275 194.202 93.8434 195.343L93.8204 195.366L93.208 195.217C93.208 195.217 93.3841 195.316 93.7018 195.477C92.01 197.048 75.4093 212.383 69.0285 215.314C67.6238 215.344 63.0305 223.546 74.9882 226.458C84.4158 228.756 86.4713 225.439 91.2942 231.304C92.6487 232.874 94.3946 234.057 96.3544 234.733C94.9764 239.13 92.7985 244.651 90.2722 245.842C85.9392 247.884 78.7891 258.592 78.0236 262.419L71.6237 276.068H71.505L70.2074 277.459C69.9489 277.736 69.7617 278.072 69.6622 278.438C69.5627 278.804 69.5539 279.189 69.6364 279.559C69.719 279.929 69.8905 280.274 70.1361 280.563C70.3816 280.852 70.6939 281.076 71.0457 281.217C74.7433 282.692 80.7604 284.738 83.4819 283.719C87.5584 282.186 81.1853 280.654 81.1853 280.654C78.636 279.635 77.3576 276.317 77.3576 276.317L97.8663 252.983C97.8663 252.983 105.904 249.865 107.547 243.295C107.65 242.877 108.859 239.655 110.253 235.989C111.554 235.893 112.79 235.767 113.916 235.644C115.738 235.441 117.897 234.721 120.086 233.771C121.414 238.265 122.555 243.138 122.069 245.333C121.051 249.93 119.772 255.787 122.069 263.438L126.019 280.397H126.379L125.973 280.459L124.92 282.018C124.706 282.335 124.572 282.699 124.531 283.08C124.489 283.46 124.541 283.845 124.682 284.201C124.824 284.557 125.049 284.873 125.34 285.121C125.631 285.37 125.979 285.543 126.352 285.626C130.237 286.508 136.469 287.584 138.983 286.155C142.819 283.991 136.277 283.47 136.277 283.47ZM102.689 158.313C102.604 156.464 102.631 154.612 102.77 152.766C103.101 156.125 103.685 159.455 104.515 162.726C105.627 165.075 106.227 167.633 106.276 170.231C106.246 173.862 104.896 177.358 102.479 180.065L102.456 180.088C104.347 173.047 103.011 165.596 102.689 158.309V158.313Z" fill="url(#paint1_linear)"/>
<path d="M104.741 142.675C102.544 146.395 102.942 153.195 105.993 165.63C105.993 165.63 109.48 175.104 102.505 183.08C95.5314 191.056 94.0386 198.021 94.0386 198.021C94.0386 198.021 72.1443 211.598 69.3807 217.712C73.4916 208.613 59.9952 221.638 75.6083 225.439C84.8216 227.684 86.8158 224.443 91.5468 230.174C96.2778 235.905 106.988 235.154 113.713 234.411C120.438 233.668 131.894 225.688 131.894 225.688C131.894 225.688 119.194 172.097 121.942 166.86C124.534 161.907 133.854 152.494 115.596 140.304C111.948 137.89 106.965 138.91 104.741 142.675Z" fill="#F0898B"/>
<path opacity="0.1" d="M104.741 142.675C102.544 146.395 102.942 153.195 105.993 165.63C105.993 165.63 109.48 175.104 102.505 183.08C95.5314 191.056 94.0386 198.021 94.0386 198.021C94.0386 198.021 72.0027 211.536 69.3807 217.712C73.2428 208.613 59.9952 221.638 75.6083 225.439C84.8216 227.684 86.8158 224.443 91.5468 230.174C96.2778 235.905 106.988 235.154 113.713 234.411C120.438 233.668 131.894 225.688 131.894 225.688C131.894 225.688 119.194 172.097 121.942 166.86C124.534 161.907 133.854 152.494 115.596 140.304C111.948 137.89 106.965 138.91 104.741 142.675Z" fill="black"/>
<path d="M98.0347 227.944C98.0347 227.944 94.7965 242.402 90.5631 244.394C86.3297 246.386 79.3556 256.856 78.6092 260.595L72.2591 274.18H78.0006L98.0347 251.378C98.0347 251.378 105.893 248.313 107.501 241.904C107.749 240.908 114.475 223.458 114.475 223.458L98.0347 227.944Z" fill="#FDB797"/>
<path d="M116.699 223.458C116.699 223.458 122.677 239.41 121.675 243.9C120.672 248.39 119.432 254.121 121.675 261.599L125.537 278.175L130.513 277.926L133.127 243.153C133.127 243.153 135.868 238.173 133.127 230.94C130.386 223.707 128.396 214.739 128.396 214.739L116.699 223.458Z" fill="#FDB797"/>
<path d="M117.939 141.947C117.939 141.947 119.432 126.742 122.915 117.518C122.915 117.518 123.91 113.032 122.915 106.301L121.422 87.3567C121.422 87.3567 121.671 78.6337 116.193 78.6337C110.716 78.6337 116.442 88.3566 116.442 88.3566L115.944 113.035C115.944 113.035 112.706 138.212 110.467 140.955L117.939 141.947Z" fill="#FDB797"/>
<path opacity="0.05" d="M117.939 141.947C117.939 141.947 119.432 126.742 122.915 117.518C122.915 117.518 123.91 113.032 122.915 106.301L121.422 87.3567C121.422 87.3567 121.671 78.6337 116.193 78.6337C110.716 78.6337 116.442 88.3566 116.442 88.3566L115.944 113.035C115.944 113.035 112.706 138.212 110.467 140.955L117.939 141.947Z" fill="black"/>
<path d="M116.699 124C116.699 124 115.703 135.964 118.693 139.952C118.693 139.952 111.719 136.213 105.744 139.454C105.744 139.454 109.48 129.233 108.236 124.747L116.699 124Z" fill="#FDB797"/>
<path opacity="0.1" d="M104.741 140.181C102.544 143.901 101.445 150.701 104.496 163.136C104.496 163.136 109.472 172.61 102.502 180.586C95.5314 188.562 94.0348 195.527 94.0348 195.527C94.0348 195.527 75.6045 212.728 69.3768 215.218C69.3768 215.218 66.3874 220.7 75.6045 222.945C84.8216 225.19 86.812 221.949 91.543 227.68C96.274 233.411 106.984 232.66 113.709 231.917C120.434 231.174 132.013 226.308 132.013 226.308C132.013 226.308 121.678 169.611 124.415 164.366C127.007 159.413 133.835 150 115.581 137.81C111.948 135.397 106.965 136.419 104.741 140.181Z" fill="black"/>
<path d="M104.741 139.683C102.544 143.403 101.445 150.203 104.496 162.638C104.496 162.638 109.472 172.112 102.502 180.088C95.5314 188.064 94.0348 195.029 94.0348 195.029C94.0348 195.029 75.6045 212.23 69.3768 214.72C69.3768 214.72 66.3874 220.202 75.6045 222.447C84.8216 224.692 86.812 221.451 91.543 227.182C96.274 232.913 106.984 232.162 113.709 231.419C120.434 230.676 132.013 225.81 132.013 225.81C132.013 225.81 121.678 169.113 124.415 163.868C127.007 158.915 133.835 149.502 115.581 137.312C111.948 134.899 106.965 135.918 104.741 139.683Z" fill="#F0898B"/>
<path d="M112.216 154.164C116.892 154.164 120.683 150.37 120.683 145.69C120.683 141.01 116.892 137.216 112.216 137.216C107.54 137.216 103.749 141.01 103.749 145.69C103.749 150.37 107.54 154.164 112.216 154.164Z" fill="#FDB797"/>
<path opacity="0.1" d="M109.227 149.176L107.485 175.349L113.227 203.269C113.227 203.269 107.998 221.715 113.227 219.968C118.455 218.221 118.704 203.02 118.704 203.02L115.206 173.867C115.206 173.867 119.439 151.931 118.693 147.433C117.946 142.936 109.227 149.176 109.227 149.176Z" fill="black"/>
<path d="M109.227 148.678L107.485 174.851L113.227 202.771C113.227 202.771 107.987 221.217 113.212 219.455C118.436 217.693 118.704 202.522 118.704 202.522L115.217 173.357C115.217 173.357 119.451 151.421 118.704 146.924C117.958 142.426 109.227 148.678 109.227 148.678Z" fill="#FDB797"/>
<path opacity="0.03" d="M108.105 132.11C111.631 132.11 114.838 131.102 116.526 128.279C116.549 126.076 116.683 124.494 116.683 124.494L108.216 125.26C108.752 127.175 108.458 128.83 107.834 131.615C108.014 131.612 107.948 132.11 108.105 132.11Z" fill="black"/>
<path d="M108.232 132.481C113.597 132.481 117.946 128.128 117.946 122.758C117.946 117.389 113.597 113.035 108.232 113.035C102.866 113.035 98.5171 117.389 98.5171 122.758C98.5171 128.128 102.866 132.481 108.232 132.481Z" fill="#FDB797"/>
<path opacity="0.03" d="M118.815 160.271C118.815 160.271 119.581 164.01 124.419 164.385Z" fill="black"/>
<path opacity="0.03" d="M93.0396 227.197C88.3086 221.451 86.3144 224.703 77.1011 222.462C67.8879 220.221 70.8582 214.735 70.8582 214.735C77.0858 212.241 95.5161 195.044 95.5161 195.044C95.5161 195.044 97.0089 188.064 103.983 180.104C110.957 172.143 105.977 162.654 105.977 162.654C102.915 150.222 104.021 143.419 106.222 139.699C106.828 138.679 107.666 137.818 108.669 137.186C109.672 136.554 110.81 136.169 111.99 136.063C110.558 135.911 109.112 136.173 107.823 136.817C106.535 137.462 105.457 138.461 104.718 139.699C102.521 143.419 101.422 150.218 104.473 162.654C104.473 162.654 109.449 172.128 102.479 180.104C95.5085 188.08 94.0118 195.044 94.0118 195.044C94.0118 195.044 75.5815 212.245 69.3539 214.735C69.3539 214.735 66.3645 220.217 75.5815 222.462C84.7986 224.707 86.789 221.466 91.52 227.197C94.7927 231.162 100.921 232.028 106.616 231.936C101.395 231.852 96.0252 230.817 93.0396 227.197Z" fill="black"/>
<path opacity="0.1" d="M111.757 134.025C111.443 133.328 110.773 132.876 110.268 132.297C108.626 130.432 108.909 127.635 108.814 125.149C108.716 122.774 108.186 120.437 107.248 118.253C107.836 117.961 108.37 117.573 108.829 117.104C109.623 116.256 110.164 115.203 110.389 114.063C110.614 112.923 110.515 111.743 110.103 110.656C108.935 111.382 107.59 111.772 106.215 111.783C104.959 111.783 103.723 111.48 102.467 111.4C100.346 111.25 98.227 111.723 96.3697 112.76C96.1094 112.733 95.8491 112.702 95.6042 112.66C90.7009 111.917 87.2943 118.165 82.3872 120.724C78.9422 122.521 77.5528 126.712 77.0284 130.558C76.504 134.404 76.4236 138.496 74.4256 141.825C73.0553 144.1 69.9893 145.414 69.4151 148.008C68.2936 153.065 69.5376 151.816 70.7816 158.547C71.195 160.773 71.7271 161.661 72.2514 163.86C72.8179 166.236 72.1902 168.714 72.106 171.139C71.8342 179.153 78.3604 186.827 86.3105 187.834C86.0861 190.755 84.8877 193.515 82.9077 195.672C86.1995 196.753 89.8397 195.504 92.7411 193.608C97.4407 190.497 100.871 185.804 102.41 180.379C104.366 173.43 103.018 166.044 102.708 158.83C102.398 151.617 103.535 143.595 109.016 138.91C110.544 137.592 112.58 135.868 111.757 134.025Z" fill="black"/>
<path d="M111.259 133.784C110.946 133.087 110.276 132.634 109.77 132.056C108.128 130.19 108.412 127.394 108.316 124.907C108.219 122.533 107.688 120.195 106.75 118.012C107.338 117.72 107.872 117.332 108.331 116.863C109.127 116.014 109.668 114.959 109.894 113.818C110.119 112.677 110.019 111.495 109.606 110.407C108.438 111.133 107.092 111.523 105.717 111.534C104.461 111.534 103.225 111.231 101.97 111.151C99.8483 111.001 97.7294 111.474 95.8721 112.511C95.6118 112.484 95.3516 112.453 95.1066 112.411C90.2033 111.668 86.7967 117.916 81.8896 120.475C78.4447 122.272 77.0552 126.463 76.5308 130.309C76.0064 134.155 75.926 138.247 73.928 141.576C72.5577 143.851 69.4917 145.165 68.9175 147.759C67.796 152.816 69.04 151.567 70.284 158.298C70.6974 160.524 71.2295 161.412 71.7539 163.611C72.3204 165.987 71.6926 168.465 71.6084 170.89C71.3366 178.904 77.8628 186.578 85.813 187.585C85.5885 190.506 84.3901 193.266 82.4101 195.423C85.7019 196.504 89.3421 195.255 92.2435 193.359C96.9546 190.256 100.397 185.565 101.947 180.138C103.903 173.189 102.555 165.803 102.245 158.589C101.935 151.375 103.072 143.353 108.553 138.668C110.046 137.343 112.082 135.619 111.259 133.784Z" fill="#252223"/>
<path d="M77.97 274.184C77.97 274.184 79.214 277.424 81.7058 278.42C81.7058 278.42 87.9335 279.915 83.9489 281.412C81.2695 282.412 75.4093 280.409 71.7921 278.968C71.4511 278.827 71.1491 278.606 70.9116 278.323C70.6741 278.041 70.5081 277.705 70.4278 277.345C70.3474 276.984 70.355 276.61 70.4499 276.253C70.5448 275.896 70.7242 275.567 70.973 275.294L72.2399 273.935L77.97 274.184Z" fill="#333333"/>
<path d="M130.769 277.424C130.769 277.424 132.924 280.577 135.538 281.175C135.538 281.175 141.923 281.684 138.218 283.78C135.753 285.174 129.659 284.125 125.862 283.263C125.498 283.18 125.159 283.01 124.875 282.767C124.591 282.524 124.371 282.215 124.233 281.868C124.096 281.52 124.045 281.144 124.085 280.772C124.126 280.401 124.256 280.044 124.465 279.734L125.495 278.202L130.769 277.424Z" fill="#333333"/>
<path opacity="0.03" d="M93.4109 194.937C93.4109 194.937 99.1524 198.178 105.614 197.929Z" fill="black"/>
<path opacity="0.3" d="M81.9355 100.999H80.347L80.6226 100.041H81.5795L81.9355 100.999Z" fill="#F26C4F"/>
<path opacity="0.3" d="M87.7 90.9271C87.7 94.5665 84.745 99.9298 81.1011 99.9298C77.4571 99.9298 74.5021 94.5665 74.5021 90.9386C74.5021 89.187 75.1974 87.5071 76.4349 86.2685C77.6725 85.0299 79.3509 84.3341 81.1011 84.3341C82.8512 84.3341 84.5297 85.0299 85.7672 86.2685C87.0048 87.5071 87.7 89.187 87.7 90.9386V90.9271Z" fill="#F26C4F"/>
<path d="M81.5795 100.083H80.6226L80.0676 99.7651H82.1345L81.5795 100.083Z" fill="#535461"/>
<path opacity="0.1" d="M78.7126 85.7975C78.7126 85.7975 75.9298 87.3107 75.5318 90.3333Z" fill="white"/>
<path opacity="0.2" d="M83.5087 92.1607L81.2389 93.5475L78.9691 92.1607L81.2389 88.2608L83.5087 92.1607ZM81.2389 93.9957L78.9691 92.6089L81.2389 95.9188L83.5087 92.6089L81.2389 93.9957Z" fill="black"/>
<path d="M81.2657 99.903C80.8451 100.368 80.5334 100.92 80.3533 101.521C80.1732 102.121 80.1292 102.754 80.2245 103.374C80.5729 105.458 82.3068 107.542 81.9585 109.971C81.6101 112.399 80.569 113.802 80.569 114.832" stroke="#535461" stroke-width="0.75" stroke-miterlimit="10"/>
<path opacity="0.3" d="M253.477 121.912H251.885L252.164 120.954H253.117L253.477 121.912Z" fill="#F26C4F"/>
<path opacity="0.3" d="M259.238 111.84C259.238 115.487 256.283 120.831 252.639 120.831C248.995 120.831 246.04 115.468 246.04 111.84C246.04 110.089 246.735 108.409 247.973 107.17C249.21 105.931 250.889 105.236 252.639 105.236C254.389 105.236 256.068 105.931 257.305 107.17C258.543 108.409 259.238 110.089 259.238 111.84V111.84Z" fill="#F26C4F"/>
<path d="M253.117 120.996H252.164L251.609 120.678H253.676L253.117 120.996Z" fill="#535461"/>
<path opacity="0.1" d="M250.254 106.711C250.254 106.711 247.472 108.224 247.073 111.246Z" fill="white"/>
<path opacity="0.2" d="M255.05 113.074L252.781 114.461L250.511 113.074L252.781 109.174L255.05 113.074ZM252.781 114.909L250.511 113.522L252.781 116.832L255.05 113.522L252.781 114.909Z" fill="black"/>
<path d="M252.807 120.816C252.387 121.281 252.075 121.833 251.895 122.434C251.715 123.034 251.671 123.667 251.766 124.287C252.115 126.371 253.848 128.455 253.5 130.884C253.152 133.313 252.111 134.715 252.111 135.745" stroke="#535461" stroke-width="0.75" stroke-miterlimit="10"/>
<path opacity="0.3" d="M283.134 110.515L281.576 110.185L282.047 109.308L282.981 109.507L283.134 110.515Z" fill="#F26C4F"/>
<path opacity="0.3" d="M290.855 101.845C290.089 105.416 286.104 110.032 282.537 109.277C278.97 108.523 277.178 102.68 277.944 99.1138C278.33 97.4245 279.363 95.9547 280.822 95.0213C282.281 94.0878 284.048 93.7655 285.741 94.1239C287.435 94.4823 288.921 95.4926 289.877 96.937C290.834 98.3814 291.185 100.144 290.855 101.845Z" fill="#F26C4F"/>
<path d="M282.973 109.545L282.039 109.35L281.561 108.921L283.582 109.35L282.973 109.545Z" fill="#535461"/>
<path opacity="0.1" d="M283.126 94.9764C283.126 94.9764 280.091 95.8805 279.077 98.7537Z" fill="white"/>
<path opacity="0.2" d="M286.502 102.198L283.995 103.086L282.059 101.259L285.086 97.9147L286.502 102.198ZM283.903 103.523L281.967 101.696L283.498 105.408L286.407 102.638L283.896 103.527L283.903 103.523Z" fill="black"/>
<path d="M282.705 109.304C282.198 109.671 281.778 110.147 281.478 110.697C281.177 111.247 281.003 111.858 280.968 112.484C280.876 114.595 282.143 116.993 281.301 119.299C280.459 121.605 279.153 122.747 278.939 123.766" stroke="#535461" stroke-width="0.75" stroke-miterlimit="10"/>
</g>
<path d="M377.16 192C377.16 200.24 375.44 207.64 372 214.2C368.56 220.76 363.8 225.92 357.72 229.68C351.64 233.36 344.72 235.2 336.96 235.2C329.2 235.2 322.28 233.36 316.2 229.68C310.12 225.92 305.36 220.76 301.92 214.2C298.48 207.64 296.76 200.24 296.76 192C296.76 183.68 298.48 176.24 301.92 169.68C305.36 163.12 310.12 158 316.2 154.32C322.28 150.64 329.2 148.8 336.96 148.8C344.72 148.8 351.64 150.64 357.72 154.32C363.8 158 368.56 163.12 372 169.68C375.44 176.24 377.16 183.68 377.16 192ZM369.48 192C369.48 185.04 368.08 178.84 365.28 173.4C362.56 167.88 358.72 163.6 353.76 160.56C348.88 157.52 343.28 156 336.96 156C330.64 156 325 157.52 320.04 160.56C315.16 163.6 311.32 167.88 308.52 173.4C305.8 178.84 304.44 185.04 304.44 192C304.44 198.96 305.8 205.2 308.52 210.72C311.32 216.16 315.16 220.4 320.04 223.44C325 226.48 330.64 228 336.96 228C343.28 228 348.88 226.48 353.76 223.44C358.72 220.4 362.56 216.16 365.28 210.72C368.08 205.2 369.48 198.96 369.48 192ZM438.195 173.04C439.235 173.04 440.075 173.4 440.715 174.12C441.435 174.76 441.795 175.6 441.795 176.64V210.48C441.795 218.32 439.595 224.36 435.195 228.6C430.795 232.76 424.715 234.84 416.955 234.84C409.275 234.84 403.235 232.76 398.835 228.6C394.515 224.36 392.355 218.32 392.355 210.48V176.64C392.355 175.6 392.675 174.76 393.315 174.12C394.035 173.4 394.915 173.04 395.955 173.04C396.995 173.04 397.835 173.4 398.475 174.12C399.195 174.76 399.555 175.6 399.555 176.64V210.48C399.555 216.24 401.075 220.64 404.115 223.68C407.155 226.64 411.435 228.12 416.955 228.12C422.555 228.12 426.875 226.64 429.915 223.68C433.035 220.64 434.595 216.24 434.595 210.48V176.64C434.595 175.6 434.915 174.76 435.555 174.12C436.275 173.4 437.155 173.04 438.195 173.04ZM489.355 171.24C490.955 171.24 492.395 171.56 493.675 172.2C494.955 172.84 495.595 173.8 495.595 175.08C495.595 176.2 495.275 177.12 494.635 177.84C493.995 178.48 493.235 178.8 492.355 178.8C491.955 178.8 491.155 178.6 489.955 178.2C488.835 177.8 487.755 177.6 486.715 177.6C483.755 177.6 480.795 178.76 477.835 181.08C474.955 183.32 472.555 186.24 470.635 189.84C468.795 193.44 467.875 197.08 467.875 200.76V230.4C467.875 231.44 467.515 232.32 466.795 233.04C466.155 233.68 465.315 234 464.275 234C463.235 234 462.355 233.68 461.635 233.04C460.995 232.32 460.675 231.44 460.675 230.4V176.64C460.675 175.6 460.995 174.76 461.635 174.12C462.355 173.4 463.235 173.04 464.275 173.04C465.315 173.04 466.155 173.4 466.795 174.12C467.515 174.76 467.875 175.6 467.875 176.64V187.2C469.715 182.64 472.475 178.88 476.155 175.92C479.915 172.88 484.315 171.32 489.355 171.24ZM586.34 189.36C591.14 190.56 595.06 192.96 598.1 196.56C601.14 200.16 602.66 204.84 602.66 210.6C602.66 218.44 600.22 224.32 595.34 228.24C590.54 232.08 584.54 234 577.34 234H545.06C544.02 234 543.14 233.68 542.42 233.04C541.78 232.32 541.46 231.44 541.46 230.4V153.6C541.46 152.56 541.78 151.72 542.42 151.08C543.14 150.36 544.02 150 545.06 150H576.86C583.58 150 588.82 151.84 592.58 155.52C596.42 159.2 598.34 164.24 598.34 170.64C598.34 174.88 597.3 178.68 595.22 182.04C593.14 185.4 590.18 187.84 586.34 189.36ZM590.66 171.24C590.66 166.84 589.34 163.4 586.7 160.92C584.14 158.36 580.54 157.08 575.9 157.08H549.14V187.08H575.9C580.22 187 583.74 185.6 586.46 182.88C589.26 180.16 590.66 176.28 590.66 171.24ZM576.98 226.92C582.34 226.92 586.66 225.56 589.94 222.84C593.3 220.12 594.98 216.04 594.98 210.6C594.98 205 593.26 200.88 589.82 198.24C586.46 195.6 582.1 194.28 576.74 194.28H549.14V226.92H576.98ZM625.392 230.4C625.392 231.44 625.032 232.32 624.312 233.04C623.672 233.68 622.832 234 621.792 234C620.752 234 619.872 233.68 619.152 233.04C618.512 232.32 618.192 231.44 618.192 230.4V148.8C618.192 147.76 618.512 146.92 619.152 146.28C619.872 145.56 620.752 145.2 621.792 145.2C622.832 145.2 623.672 145.56 624.312 146.28C625.032 146.92 625.392 147.76 625.392 148.8V230.4ZM700.597 203.28C700.597 209.28 699.277 214.72 696.637 219.6C693.997 224.48 690.357 228.32 685.717 231.12C681.077 233.84 675.917 235.2 670.237 235.2C664.557 235.2 659.397 233.84 654.757 231.12C650.117 228.32 646.477 224.48 643.837 219.6C641.197 214.72 639.877 209.28 639.877 203.28C639.877 197.28 641.197 191.84 643.837 186.96C646.477 182.08 650.117 178.24 654.757 175.44C659.397 172.64 664.557 171.24 670.237 171.24C675.917 171.24 681.077 172.64 685.717 175.44C690.357 178.24 693.997 182.08 696.637 186.96C699.277 191.84 700.597 197.28 700.597 203.28ZM693.397 203.28C693.397 198.48 692.397 194.16 690.397 190.32C688.397 186.48 685.597 183.48 681.997 181.32C678.477 179.08 674.557 177.96 670.237 177.96C665.917 177.96 661.997 179.08 658.477 181.32C654.957 183.48 652.157 186.48 650.077 190.32C648.077 194.16 647.077 198.48 647.077 203.28C647.077 208 648.077 212.28 650.077 216.12C652.157 219.96 654.957 223 658.477 225.24C661.997 227.4 665.917 228.48 670.237 228.48C674.557 228.48 678.477 227.4 681.997 225.24C685.597 223.08 688.397 220.08 690.397 216.24C692.397 212.4 693.397 208.08 693.397 203.28ZM767.164 172.68C768.204 172.68 769.044 173.04 769.684 173.76C770.404 174.4 770.764 175.28 770.764 176.4V228.36C770.764 234.6 769.444 239.92 766.804 244.32C764.244 248.8 760.684 252.2 756.124 254.52C751.644 256.84 746.484 258 740.644 258C737.844 258 734.884 257.64 731.764 256.92C728.724 256.2 726.084 255.28 723.844 254.16C721.684 253.04 720.444 251.88 720.124 250.68C719.564 250.12 719.284 249.48 719.284 248.76C719.284 247.96 719.644 247.32 720.364 246.84C720.684 246.6 721.084 246.48 721.564 246.48C722.044 246.48 722.964 246.76 724.324 247.32L726.844 248.4C731.804 250.32 736.444 251.28 740.764 251.28C747.884 251.28 753.444 249.24 757.444 245.16C761.524 241.16 763.564 235.72 763.564 228.84V221.4C761.564 225.72 758.404 229.12 754.084 231.6C749.764 234 745.244 235.2 740.524 235.2C735.004 235.2 730.004 233.84 725.524 231.12C721.124 228.32 717.644 224.48 715.084 219.6C712.524 214.72 711.244 209.24 711.244 203.16C711.244 197.16 712.524 191.72 715.084 186.84C717.644 181.96 721.124 178.16 725.524 175.44C730.004 172.64 734.964 171.24 740.404 171.24C745.444 171.24 750.044 172.52 754.204 175.08C758.444 177.56 761.564 180.56 763.564 184.08V176.4C763.564 175.36 763.884 174.48 764.524 173.76C765.244 173.04 766.124 172.68 767.164 172.68ZM741.124 228.48C745.524 228.48 749.444 227.44 752.884 225.36C756.404 223.2 759.124 220.2 761.044 216.36C763.044 212.44 764.044 208.04 764.044 203.16C764.044 198.28 763.044 193.92 761.044 190.08C759.124 186.24 756.404 183.28 752.884 181.2C749.444 179.04 745.524 177.96 741.124 177.96C736.804 177.96 732.884 179.08 729.364 181.32C725.924 183.48 723.204 186.48 721.204 190.32C719.284 194.16 718.324 198.44 718.324 203.16C718.324 207.96 719.284 212.28 721.204 216.12C723.204 219.96 725.924 223 729.364 225.24C732.884 227.4 736.804 228.48 741.124 228.48Z" fill="white"/>
<defs>
<linearGradient id="paint0_linear" x1="116.89" y1="58.3068" x2="116.89" y2="1.58326e-05" gradientUnits="userSpaceOnUse">
<stop stop-color="#808080" stop-opacity="0.25"/>
<stop offset="0.54" stop-color="#808080" stop-opacity="0.12"/>
<stop offset="1" stop-color="#808080" stop-opacity="0.1"/>
</linearGradient>
<linearGradient id="paint1_linear" x1="35972.6" y1="169795" x2="35972.6" y2="54039.2" gradientUnits="userSpaceOnUse">
<stop stop-color="#808080" stop-opacity="0.25"/>
<stop offset="0.54" stop-color="#808080" stop-opacity="0.12"/>
<stop offset="1" stop-color="#808080" stop-opacity="0.1"/>
</linearGradient>
<clipPath id="clip0">
<rect width="291" height="301" fill="white"/>
</clipPath>
</defs>
</svg>
