<svg width="1150" height="373" viewBox="0 0 1150 373" fill="none" xmlns="http://www.w3.org/2000/svg">
<rect width="1150" height="350" fill="#12141C"/>
<path d="M237.227 18L14 102.234L116.173 373L339.4 288.766L237.227 18Z" fill="#F26C4F"/>
<path d="M146.45 231.519L104.078 247.508L105.638 251.642L148.01 235.653L146.45 231.519Z" fill="#12141C"/>
<path d="M204.5 210.167L162.129 226.156L163.689 230.29L206.06 214.301L204.5 210.167Z" fill="#12141C"/>
<path d="M262.551 190.15L220.179 206.139L221.739 210.272L264.111 194.284L262.551 190.15Z" fill="#12141C"/>
<path d="M202.737 93.399L78.723 140.195L95.8817 185.667L219.896 138.871L202.737 93.399Z" fill="#12141C"/>
<path d="M257.603 162.437L93.2845 224.443L94.8444 228.576L259.163 166.571L257.603 162.437Z" fill="#12141C"/>
<path d="M276.404 206.164L112.085 268.169L113.645 272.303L277.964 210.298L276.404 206.164Z" fill="#12141C"/>
<path d="M569.98 179.5C569.98 187.053 568.403 193.837 565.25 199.85C562.097 205.863 557.733 210.593 552.16 214.04C546.587 217.413 540.243 219.1 533.13 219.1C526.017 219.1 519.673 217.413 514.1 214.04C508.527 210.593 504.163 205.863 501.01 199.85C497.857 193.837 496.28 187.053 496.28 179.5C496.28 171.873 497.857 165.053 501.01 159.04C504.163 153.027 508.527 148.333 514.1 144.96C519.673 141.587 526.017 139.9 533.13 139.9C540.243 139.9 546.587 141.587 552.16 144.96C557.733 148.333 562.097 153.027 565.25 159.04C568.403 165.053 569.98 171.873 569.98 179.5ZM562.94 179.5C562.94 173.12 561.657 167.437 559.09 162.45C556.597 157.39 553.077 153.467 548.53 150.68C544.057 147.893 538.923 146.5 533.13 146.5C527.337 146.5 522.167 147.893 517.62 150.68C513.147 153.467 509.627 157.39 507.06 162.45C504.567 167.437 503.32 173.12 503.32 179.5C503.32 185.88 504.567 191.6 507.06 196.66C509.627 201.647 513.147 205.533 517.62 208.32C522.167 211.107 527.337 212.5 533.13 212.5C538.923 212.5 544.057 211.107 548.53 208.32C553.077 205.533 556.597 201.647 559.09 196.66C561.657 191.6 562.94 185.88 562.94 179.5ZM625.929 162.12C626.882 162.12 627.652 162.45 628.239 163.11C628.899 163.697 629.229 164.467 629.229 165.42V196.44C629.229 203.627 627.212 209.163 623.179 213.05C619.145 216.863 613.572 218.77 606.459 218.77C599.419 218.77 593.882 216.863 589.849 213.05C585.889 209.163 583.909 203.627 583.909 196.44V165.42C583.909 164.467 584.202 163.697 584.789 163.11C585.449 162.45 586.255 162.12 587.209 162.12C588.162 162.12 588.932 162.45 589.519 163.11C590.179 163.697 590.509 164.467 590.509 165.42V196.44C590.509 201.72 591.902 205.753 594.689 208.54C597.475 211.253 601.399 212.61 606.459 212.61C611.592 212.61 615.552 211.253 618.339 208.54C621.199 205.753 622.629 201.72 622.629 196.44V165.42C622.629 164.467 622.922 163.697 623.509 163.11C624.169 162.45 624.975 162.12 625.929 162.12ZM672.826 160.47C674.292 160.47 675.612 160.763 676.786 161.35C677.959 161.937 678.546 162.817 678.546 163.99C678.546 165.017 678.252 165.86 677.666 166.52C677.079 167.107 676.382 167.4 675.576 167.4C675.209 167.4 674.476 167.217 673.376 166.85C672.349 166.483 671.359 166.3 670.406 166.3C667.692 166.3 664.979 167.363 662.266 169.49C659.626 171.543 657.426 174.22 655.666 177.52C653.979 180.82 653.136 184.157 653.136 187.53V214.7C653.136 215.653 652.806 216.46 652.146 217.12C651.559 217.707 650.789 218 649.836 218C648.882 218 648.076 217.707 647.416 217.12C646.829 216.46 646.536 215.653 646.536 214.7V165.42C646.536 164.467 646.829 163.697 647.416 163.11C648.076 162.45 648.882 162.12 649.836 162.12C650.789 162.12 651.559 162.45 652.146 163.11C652.806 163.697 653.136 164.467 653.136 165.42V175.1C654.822 170.92 657.352 167.473 660.726 164.76C664.172 161.973 668.206 160.543 672.826 160.47ZM761.728 177.08C766.128 178.18 769.721 180.38 772.508 183.68C775.295 186.98 776.688 191.27 776.688 196.55C776.688 203.737 774.451 209.127 769.978 212.72C765.578 216.24 760.078 218 753.478 218H723.888C722.935 218 722.128 217.707 721.468 217.12C720.881 216.46 720.588 215.653 720.588 214.7V144.3C720.588 143.347 720.881 142.577 721.468 141.99C722.128 141.33 722.935 141 723.888 141H753.038C759.198 141 764.001 142.687 767.448 146.06C770.968 149.433 772.728 154.053 772.728 159.92C772.728 163.807 771.775 167.29 769.868 170.37C767.961 173.45 765.248 175.687 761.728 177.08ZM765.688 160.47C765.688 156.437 764.478 153.283 762.058 151.01C759.711 148.663 756.411 147.49 752.158 147.49H727.628V174.99H752.158C756.118 174.917 759.345 173.633 761.838 171.14C764.405 168.647 765.688 165.09 765.688 160.47ZM753.148 211.51C758.061 211.51 762.021 210.263 765.028 207.77C768.108 205.277 769.648 201.537 769.648 196.55C769.648 191.417 768.071 187.64 764.918 185.22C761.838 182.8 757.841 181.59 752.928 181.59H727.628V211.51H753.148ZM797.526 214.7C797.526 215.653 797.196 216.46 796.536 217.12C795.95 217.707 795.18 218 794.226 218C793.273 218 792.466 217.707 791.806 217.12C791.22 216.46 790.926 215.653 790.926 214.7V139.9C790.926 138.947 791.22 138.177 791.806 137.59C792.466 136.93 793.273 136.6 794.226 136.6C795.18 136.6 795.95 136.93 796.536 137.59C797.196 138.177 797.526 138.947 797.526 139.9V214.7ZM866.464 189.84C866.464 195.34 865.254 200.327 862.834 204.8C860.414 209.273 857.077 212.793 852.824 215.36C848.57 217.853 843.84 219.1 838.634 219.1C833.427 219.1 828.697 217.853 824.444 215.36C820.19 212.793 816.854 209.273 814.434 204.8C812.014 200.327 810.804 195.34 810.804 189.84C810.804 184.34 812.014 179.353 814.434 174.88C816.854 170.407 820.19 166.887 824.444 164.32C828.697 161.753 833.427 160.47 838.634 160.47C843.84 160.47 848.57 161.753 852.824 164.32C857.077 166.887 860.414 170.407 862.834 174.88C865.254 179.353 866.464 184.34 866.464 189.84ZM859.864 189.84C859.864 185.44 858.947 181.48 857.114 177.96C855.28 174.44 852.714 171.69 849.414 169.71C846.187 167.657 842.594 166.63 838.634 166.63C834.674 166.63 831.08 167.657 827.854 169.71C824.627 171.69 822.06 174.44 820.154 177.96C818.32 181.48 817.404 185.44 817.404 189.84C817.404 194.167 818.32 198.09 820.154 201.61C822.06 205.13 824.627 207.917 827.854 209.97C831.08 211.95 834.674 212.94 838.634 212.94C842.594 212.94 846.187 211.95 849.414 209.97C852.714 207.99 855.28 205.24 857.114 201.72C858.947 198.2 859.864 194.24 859.864 189.84ZM927.483 161.79C928.437 161.79 929.207 162.12 929.793 162.78C930.453 163.367 930.783 164.173 930.783 165.2V212.83C930.783 218.55 929.573 223.427 927.153 227.46C924.807 231.567 921.543 234.683 917.363 236.81C913.257 238.937 908.527 240 903.173 240C900.607 240 897.893 239.67 895.033 239.01C892.247 238.35 889.827 237.507 887.773 236.48C885.793 235.453 884.657 234.39 884.363 233.29C883.85 232.777 883.593 232.19 883.593 231.53C883.593 230.797 883.923 230.21 884.583 229.77C884.877 229.55 885.243 229.44 885.683 229.44C886.123 229.44 886.967 229.697 888.213 230.21L890.523 231.2C895.07 232.96 899.323 233.84 903.283 233.84C909.81 233.84 914.907 231.97 918.573 228.23C922.313 224.563 924.183 219.577 924.183 213.27V206.45C922.35 210.41 919.453 213.527 915.493 215.8C911.533 218 907.39 219.1 903.063 219.1C898.003 219.1 893.42 217.853 889.313 215.36C885.28 212.793 882.09 209.273 879.743 204.8C877.397 200.327 876.223 195.303 876.223 189.73C876.223 184.23 877.397 179.243 879.743 174.77C882.09 170.297 885.28 166.813 889.313 164.32C893.42 161.753 897.967 160.47 902.953 160.47C907.573 160.47 911.79 161.643 915.603 163.99C919.49 166.263 922.35 169.013 924.183 172.24V165.2C924.183 164.247 924.477 163.44 925.063 162.78C925.723 162.12 926.53 161.79 927.483 161.79ZM903.613 212.94C907.647 212.94 911.24 211.987 914.393 210.08C917.62 208.1 920.113 205.35 921.873 201.83C923.707 198.237 924.623 194.203 924.623 189.73C924.623 185.257 923.707 181.26 921.873 177.74C920.113 174.22 917.62 171.507 914.393 169.6C911.24 167.62 907.647 166.63 903.613 166.63C899.653 166.63 896.06 167.657 892.833 169.71C889.68 171.69 887.187 174.44 885.353 177.96C883.593 181.48 882.713 185.403 882.713 189.73C882.713 194.13 883.593 198.09 885.353 201.61C887.187 205.13 889.68 207.917 892.833 209.97C896.06 211.95 899.653 212.94 903.613 212.94Z" fill="white"/>
</svg>
